<svg width="2084" height="1459" viewBox="0 0 2084 1459" fill="none" xmlns="http://www.w3.org/2000/svg">
<path d="M1062.35 0.0648489C1064.15 0.0715542 1064.15 0.0715542 1065.98 0.0783949C1089.56 0.16871 1113.14 0.296393 1136.73 0.439849C1137.59 0.445061 1138.45 0.450274 1139.34 0.455644C1200.78 0.828045 1262.2 1.55973 1323.62 3.00113C1327.16 3.08371 1330.7 3.16428 1334.24 3.24488C1414.17 5.06992 1494.13 7.66013 1600.53 13.404C1602.42 13.5097 1604.32 13.6151 1606.22 13.7204C1644.35 15.8374 1682.46 18.2646 1720.5 21.6932C1722.6 21.8829 1724.71 22.0714 1726.81 22.2599C1752.74 24.5894 1778.57 27.4508 1804.35 31.0648C1805.06 31.1641 1805.77 31.2634 1806.51 31.3656C1819.38 33.17 1831.89 35.3063 1844.35 39.0648C1845.99 39.5363 1847.64 40.0063 1849.28 40.475C1857.41 42.8186 1865.37 45.2419 1873.12 48.6625C1876.53 50.1434 1879.98 51.5028 1883.44 52.8573C1925.55 69.3896 1964.09 94.2676 1992.35 130.065C1993.12 131.006 1993.89 131.947 1994.68 132.916C2007.86 149.394 2020.02 168.734 2027.41 188.584C2028.55 191.588 2029.86 194.502 2031.16 197.44C2066.88 281.056 2069.02 381.076 2079.05 533.708C2079.33 539.696 2079.63 545.683 2079.94 551.67C2082.91 609.764 2083.56 667.879 2083.54 726.042C2083.54 728.15 2083.54 730.259 2083.54 732.367C2083.54 777.34 2083.11 822.269 2081.49 867.217C2081.31 872.216 2081.15 877.216 2080.99 882.216C2080.06 911.295 2078.52 940.312 2076.54 969.337C2076.36 971.935 2076.19 974.533 2076.02 977.132C2065.35 1141.47 2065.35 1141.47 2047.35 1211.06C2047.06 1212.21 2046.77 1213.36 2046.46 1214.55C2044.03 1223.9 2041.23 1233.09 2038.16 1242.25C2037.92 1242.97 2037.68 1243.69 2037.44 1244.43C2033.44 1256.34 2028.98 1267.82 2023.35 1279.06C2022.9 1279.98 2022.45 1280.89 2021.99 1281.83C2009.73 1306.63 1994.41 1328.07 1975.35 1348.06C1974.21 1349.26 1974.21 1349.26 1973.05 1350.49C1958.34 1365.62 1940.53 1377.52 1922.35 1388.06C1921.43 1388.6 1921.43 1388.6 1920.5 1389.15C1904.89 1398.12 1887.92 1405.54 1870.83 1411.16C1868.15 1412.03 1868.15 1412.03 1865.35 1414.06C1863.6 1414.62 1861.82 1415.11 1860.04 1415.56C1857.17 1416.3 1854.37 1417.06 1851.57 1418.01C1845.91 1419.86 1840.09 1421.11 1834.29 1422.44C1833.62 1422.59 1832.94 1422.75 1832.25 1422.91C1818.58 1426.02 1804.89 1428.05 1790.98 1429.7C1788.45 1430 1788.45 1430 1786.43 1430.57C1783.45 1431.28 1780.48 1431.48 1777.43 1431.75C1776.06 1431.87 1774.69 1432 1773.32 1432.12C1771.18 1432.31 1769.04 1432.5 1766.9 1432.69C1764.83 1432.87 1762.75 1433.06 1760.68 1433.25C1759.44 1433.36 1758.2 1433.47 1756.93 1433.58C1753.26 1434.08 1749.9 1435 1746.35 1436.06C1743.87 1436.19 1743.87 1436.19 1741.6 1436.06C1738.05 1435.99 1734.94 1436.26 1731.48 1437C1726.4 1438.03 1721.44 1438.34 1716.27 1438.55C1714.47 1438.63 1712.67 1438.71 1710.87 1438.8C1709.5 1438.86 1709.5 1438.86 1708.09 1438.93C1703.82 1439.14 1699.56 1439.4 1695.3 1439.68C1694.44 1439.73 1693.58 1439.79 1692.7 1439.84C1690.9 1439.96 1689.11 1440.08 1687.31 1440.19C1684.34 1440.39 1681.38 1440.58 1678.41 1440.77C1668.07 1441.43 1657.72 1442.1 1647.38 1442.79C1611.48 1445.19 1575.57 1447.25 1539.63 1448.91C1536.61 1449.05 1533.59 1449.19 1530.57 1449.34C1516.83 1449.98 1503.09 1450.54 1489.35 1451.06C1487.98 1451.12 1486.6 1451.17 1485.23 1451.22C1391.42 1454.83 1297.55 1457.29 1203.67 1458.04C1200.03 1458.07 1196.38 1458.1 1192.73 1458.13C1172.45 1458.3 1152.17 1458.46 1131.89 1458.61C1130.37 1458.62 1128.85 1458.63 1127.33 1458.64C1069.58 1459.08 1011.85 1459.07 954.102 1458.63C952.568 1458.62 951.035 1458.6 949.502 1458.59C928.681 1458.44 907.861 1458.27 887.04 1458.1C883.677 1458.07 880.314 1458.04 876.952 1458.01C806.155 1457.44 735.357 1455.7 664.59 1453.59C662.748 1453.54 660.906 1453.48 659.063 1453.43C653.277 1453.25 647.515 1452.95 641.74 1452.54C635.431 1452.1 629.181 1451.95 622.859 1452C621.363 1452.01 621.363 1452.01 619.837 1452.01C616.717 1452.03 613.597 1452.04 610.477 1452.06C606.313 1452.09 602.149 1452.11 597.984 1452.13C597.031 1452.14 596.077 1452.14 595.094 1452.15C594.221 1452.16 593.349 1452.16 592.45 1452.16C591.68 1452.17 590.91 1452.17 590.117 1452.18C588.352 1452.06 588.352 1452.06 587.352 1451.06C585.425 1450.98 583.495 1450.96 581.567 1450.97C580.397 1450.97 579.227 1450.97 578.022 1450.98C576.79 1450.99 575.558 1450.99 574.289 1451C573.054 1451.01 571.818 1451.01 570.545 1451.02C567.481 1451.03 564.416 1451.04 561.352 1451.06C561.352 1450.4 561.352 1449.74 561.352 1449.06C560.781 1449.1 560.211 1449.14 559.623 1449.17C557.054 1449.33 554.484 1449.48 551.914 1449.63C551.016 1449.68 550.119 1449.74 549.193 1449.8C548.339 1449.85 547.485 1449.89 546.606 1449.94C545.815 1449.99 545.024 1450.04 544.209 1450.09C542.352 1450.06 542.352 1450.06 541.352 1449.06C533.739 1447.78 525.874 1447.79 518.177 1447.56C516.185 1447.5 514.193 1447.44 512.201 1447.37C504.249 1447.12 496.324 1447.05 488.37 1447.15C485.352 1447.06 485.352 1447.06 482.352 1446.06C480.823 1445.91 479.289 1445.79 477.755 1445.71C476.822 1445.65 475.888 1445.6 474.927 1445.55C473.915 1445.49 472.903 1445.44 471.86 1445.38C470.804 1445.32 469.748 1445.26 468.66 1445.2C464.152 1444.94 459.643 1444.69 455.133 1444.44C442.817 1443.76 430.539 1442.97 418.264 1441.73C412.398 1441.15 406.558 1440.75 400.664 1440.56C393.326 1440.28 386.116 1439.64 378.832 1438.72C372.488 1437.97 366.282 1437.98 359.902 1438.19C356.082 1438.06 353.015 1437.11 349.352 1436.06C346.896 1435.96 344.434 1435.94 341.977 1436C339.769 1436.06 337.56 1436.09 335.352 1436.06C335.022 1435.73 334.692 1435.4 334.352 1435.06C332.506 1434.8 330.652 1434.6 328.797 1434.42C327.634 1434.3 326.472 1434.18 325.274 1434.06C323.394 1433.88 323.394 1433.88 321.477 1433.69C311.561 1432.67 301.742 1431.46 291.914 1429.81C287.813 1429.12 283.701 1428.55 279.58 1427.99C268.402 1426.47 257.367 1424.5 246.352 1422.06C245.163 1421.8 243.975 1421.54 242.75 1421.27C202.629 1411.45 160.383 1392.45 128.352 1366.06C126.845 1364.86 126.845 1364.86 125.309 1363.64C110.721 1351.82 97.3154 1338.32 86.3517 1323.06C85.9569 1322.52 85.5622 1321.98 85.1554 1321.41C69.9747 1300.35 58.6117 1277.93 49.3708 1253.72C48.535 1251.54 47.6776 1249.38 46.7931 1247.22C43.8545 1239.97 41.6773 1232.59 39.6735 1225.03C38.844 1221.9 38.003 1218.78 37.1479 1215.67C34.0987 1204.47 31.6048 1193.24 29.5392 1181.81C29.3735 1180.9 29.2078 1179.99 29.0371 1179.06C21.0632 1134.81 16.5593 1089.86 12.6206 1045.1C12.3542 1042.09 12.0812 1039.09 11.8058 1036.09C9.30098 1008.77 7.39512 981.44 5.90835 954.046C5.59406 948.286 5.26033 942.528 4.90127 936.77C3.53102 914.649 2.52533 892.524 1.74624 870.373C1.7137 869.455 1.68113 868.537 1.64761 867.591C0.116652 824.103 -0.0795646 780.64 0.0224835 737.131C0.0379843 730.09 0.0406587 723.05 0.0360333 716.009C-0.00499061 650.954 1.24091 586.154 4.97073 521.191C5.16964 517.721 5.36605 514.251 5.56216 510.781C9.15319 447.422 14.6378 384.405 23.029 321.489C23.3214 319.293 23.6101 317.096 23.8966 314.899C32.3528 250.301 47.9703 182.508 90.3517 131.065C91.1535 130.061 91.9553 129.056 92.7814 128.022C104.146 113.991 117.095 100.924 131.697 90.2753C133.344 89.0704 134.967 87.8379 136.59 86.6C156.64 71.5368 180.086 59.736 203.684 51.3813C206.525 50.3614 209.31 49.2858 212.106 48.1508C296.488 14.1921 401.487 17.6873 717.196 4.30362C725.805 4.08022 734.414 3.84804 743.023 3.61377C750.65 3.40629 758.277 3.20368 765.905 3.00162C768.123 2.9426 770.342 2.88283 772.56 2.82284C827.126 1.35434 881.698 0.859349 936.28 0.547439C942.346 0.512616 948.411 0.475555 954.477 0.437163C955.768 0.428997 955.768 0.428997 957.085 0.420666C957.943 0.415233 958.802 0.409799 959.687 0.404201C1031.71 -0.0512724 1031.71 -0.0512724 1062.35 0.0648489Z" fill="#FD0000"/>
<path d="M827 416C831.266 417.422 834.145 418.486 837.852 420.695C838.771 421.238 839.689 421.781 840.636 422.34C841.623 422.929 842.609 423.518 843.625 424.125C845.786 425.401 847.947 426.676 850.109 427.949C851.238 428.615 852.367 429.28 853.529 429.966C859.279 433.345 865.079 436.638 870.875 439.938C873.241 441.286 875.607 442.635 877.973 443.984C878.557 444.318 879.142 444.651 879.744 444.995C885.947 448.536 892.13 452.112 898.312 455.688C906.391 460.359 914.492 464.986 922.625 469.562C931.476 474.544 940.258 479.635 949.02 484.77C955.812 488.743 962.641 492.644 969.5 496.5C978.394 501.5 987.217 506.611 996.02 511.77C1002.81 515.743 1009.64 519.644 1016.5 523.5C1025.39 528.5 1034.22 533.611 1043.02 538.77C1049.81 542.743 1056.64 546.644 1063.5 550.5C1072.39 555.5 1081.22 560.611 1090.02 565.77C1096.81 569.743 1103.64 573.643 1110.5 577.5C1118.27 581.87 1126 586.307 1133.69 590.812C1142.39 595.908 1151.12 600.944 1159.88 605.938C1168.93 611.101 1177.97 616.284 1187 621.5C1196.09 626.753 1205.2 631.981 1214.31 637.188C1215.2 637.694 1215.2 637.694 1216.11 638.211C1221.02 641.018 1225.94 643.823 1230.85 646.628C1249.58 657.309 1268.27 668.054 1286.88 678.938C1304.08 688.992 1321.39 698.847 1338.75 708.625C1350.58 715.286 1362.29 722.13 1374 729C1370.77 731.691 1367.57 733.939 1363.89 735.961C1362.9 736.507 1361.91 737.054 1360.89 737.617C1359.84 738.197 1358.78 738.777 1357.69 739.375C1349.09 744.138 1340.54 748.966 1332.06 753.938C1331.08 754.512 1330.1 755.086 1329.09 755.677C1327.09 756.852 1325.08 758.027 1323.07 759.203C1309.21 767.31 1295.28 775.311 1281.25 783.125C1272.47 788.012 1263.79 793.037 1255.16 798.178C1247.75 802.583 1240.26 806.833 1232.75 811.055C1225.79 814.969 1218.89 818.964 1212 823C1203.26 828.121 1194.47 833.142 1185.64 838.105C1178.72 842.005 1171.85 845.984 1165 850C1156.14 855.192 1147.23 860.286 1138.28 865.323C1131.68 869.043 1125.11 872.816 1118.55 876.626C1111.39 880.786 1104.2 884.894 1097 889C1086.83 894.804 1076.68 900.644 1066.55 906.521C1052.72 914.539 1038.86 922.519 1024.97 930.441C1017.97 934.439 1010.98 938.467 1004 942.5C996.177 947.018 988.347 951.524 980.5 956C972.798 960.392 965.114 964.815 957.438 969.25C948.306 974.525 939.159 979.773 930 985C912.66 994.897 895.359 1004.86 878.125 1014.94C869.132 1020.2 860.107 1025.39 851.062 1030.56C850.471 1030.9 849.88 1031.24 849.271 1031.59C845.518 1033.73 841.76 1035.87 838 1038C837.095 1038.52 836.19 1039.04 835.257 1039.57C834.449 1040.03 833.641 1040.49 832.809 1040.96C832.114 1041.36 831.42 1041.76 830.705 1042.17C829 1043 829 1043 827 1043C827 836.09 827 629.18 827 416Z" fill="#FEFEFE"/>
</svg>
